# File created by Blade
# Date/Time:  Thu Sep 25 17:33:50 2014
# Frame Rate: 120.000 fps
#------------------------------------------------------
:FULLY-SPECIFIED
:DEGREES
2422
root -1.510996 33.697613 -1.867217 12.346843 12.381751 22.619369
Spine -6.160501 -5.140355 -12.069476
Head -11.714635 10.935684 -7.031916
LeftShoulder 5.527596 5.182305 14.499231
LeftArm 71.692402 32.121862 -43.636450
LeftForeArm 35.178251 -0.000000 105.474356
LeftHand -27.223045 -0.000000 29.504189
LeftHandThumb1 -26.253704 0.000000 33.147579
RightShoulder -14.947716 12.593763 -27.508405
RightArm 12.925180 -26.973342 59.176658
RightForeArm -20.086750 -0.000000 127.493568
RightHand 0.237520 -0.000000 -25.968675
RightHandThumb1 -24.326973 -0.000000 -32.862282
LeftUpLeg -43.682187 19.957384 -18.539305
LeftLeg 69.400449 -0.000000 -0.000000
LeftFoot 7.229868 -2.270800 -41.228064
LeftToeBase -4.269259 -0.000000 0.000000
RightUpLeg -12.326076 -4.850309 -21.564880
RightLeg 20.557495 -0.000000 -0.000000
RightFoot -11.821533 -21.651319 -13.098287
RightToeBase -2.289420 -0.000000 0.000000
2423
root -1.409092 33.666764 -1.806746 12.105047 11.843055 21.973431
Spine -6.344755 -4.820454 -11.461360
Head -11.711043 10.709835 -6.931167
LeftShoulder 5.308038 5.385070 14.516047
LeftArm 71.492100 32.224274 -43.905876
LeftForeArm 35.340687 -0.000000 105.700689
LeftHand -27.293876 -0.000000 29.348179
LeftHandThumb1 -26.253704 0.000000 33.147579
RightShoulder -14.897651 12.616029 -27.533356
RightArm 12.891164 -27.144831 59.638131
RightForeArm -20.162107 -0.000000 127.457822
RightHand 0.217460 -0.000000 -25.950178
RightHandThumb1 -24.326973 -0.000000 -32.862282
LeftUpLeg -41.521020 18.975627 -17.986559
LeftLeg 65.758732 -0.000000 -0.000000
LeftFoot 6.383109 -2.410014 -40.844269
LeftToeBase -4.245687 -0.000000 0.000000
RightUpLeg -12.308915 -4.573634 -21.169388
RightLeg 20.423534 -0.000000 -0.000000
RightFoot -11.923565 -21.376430 -13.186405
RightToeBase -2.278752 -0.000000 0.000000
2424
root -1.310447 33.632952 -1.744839 11.871067 11.301158 21.302268
Spine -6.534364 -4.435655 -10.829420
Head -11.680169 10.443937 -6.810046
LeftShoulder 5.158415 5.457793 14.531447
LeftArm 71.173115 32.419009 -44.237302
LeftForeArm 35.539555 -0.000000 105.954650
LeftHand -27.157734 -0.000000 28.994363
LeftHandThumb1 -26.253704 0.000000 33.147579
RightShoulder -14.911922 12.576844 -27.573692
RightArm 12.859523 -27.336075 60.146433
RightForeArm -20.228286 -0.000000 127.453936
RightHand 0.183964 -0.000000 -26.014176
RightHandThumb1 -24.326973 -0.000000 -32.862282
LeftUpLeg -39.381434 17.995791 -17.429110
LeftLeg 62.063925 -0.000000 -0.000000
LeftFoot 5.537726 -2.622245 -40.696429
LeftToeBase -3.628290 -0.000000 0.000000
RightUpLeg -12.308553 -4.248839 -20.742774
RightLeg 20.324028 -0.000000 -0.000000
RightFoot -12.219461 -21.048445 -12.954047
RightToeBase -1.974424 -0.000000 0.000000
2425
root -1.200709 33.597339 -1.680346 11.626133 10.748234 20.676717
Spine -6.706964 -4.126828 -10.215698
Head -11.607659 10.261548 -6.684012
LeftShoulder 4.957912 5.550472 14.511112
LeftArm 70.825938 32.607798 -44.563528
LeftForeArm 35.756356 0.000000 106.218510
LeftHand -27.226804 -0.000000 28.892908
LeftHandThumb1 -26.253704 0.000000 33.147579
RightShoulder -14.896292 12.640005 -27.636695
RightArm 12.747127 -27.497351 60.735144
RightForeArm -20.174549 -0.000000 127.436987
RightHand 0.265550 -0.000000 -25.591338
RightHandThumb1 -24.326973 -0.000000 -32.862282
LeftUpLeg -37.195441 16.963234 -16.932471
LeftLeg 58.324441 -0.000000 -0.000000
LeftFoot 4.954833 -2.773557 -40.768814
LeftToeBase -2.983967 -0.000000 0.000000
RightUpLeg -12.290825 -3.945941 -20.391671
RightLeg 20.282104 -0.000000 -0.000000
RightFoot -12.276568 -20.784565 -13.239977
RightToeBase -2.150659 -0.000000 0.000000
